# xmcd
#
# Track frame offsets:
#	150
#	14477
#	29262
#	47862
#	63902
#	74520
#	93562
#	105422
#	118247
#	131635
#	142695
#	157105
#	169312
#	183727
#	200530
#	209515
#	222682
#	244045
#
# Disc length: 3477
#
# Revision: 1
# Processed by: cddbd v1.5.1PL0 Copyright (c) Steve Scherf et al.
# Submitted via: VisiTrax 2.9.10.228 - For more info visit www.synapsa.com
# Normalized: r0:DSETVAR1
#
DISCID=1a0d9312
DTITLE=Various Artist - Forever Friends
DYEAR=1900
DGENRE=
TTITLE0=Charley Pride - I Don't Know Why I Love You But I Do
TTITLE1=Marsha Thornton - A Bottle of Wine and Patsy Cline
TTITLE2=J.J. Barrie - My Son
TTITLE3=Lorrie Morgan - Five Minutes
TTITLE4=Gene Pitney - Nobody Needs Your Love More Than I Do
TTITLE5=Nanci Griffith - From A Distance
TTITLE6=Skeeter Davis - End Of The World
TTITLE7=Daniel O'Donnell - I Just Want To Dance With You
TTITLE8=Dolly Parton - Here You Come Again
TTITLE9=Patsy Cline - Leaving On Your Mind
TTITLE10=Foster and Allen - After All These Years
TTITLE11=Crystal Gayle - Don't It Make Your Brown Eyes Blue
TTITLE12=Tony Christie - Is This The Way To Amarillo
TTITLE13=Paul Richey - The Devil Inside
TTITLE14=Sean Wilson - Let's Turn Back The Years
TTITLE15=Susan McCann - When The Sun Says Goodbye To The Mountains
TTITLE16=Connie Francis - Torn Between Two Lovers
TTITLE17=J.J. Barrie - No Charge
EXTD=
EXTT0=
EXTT1=
EXTT2=
EXTT3=
EXTT4=
EXTT5=
EXTT6=
EXTT7=
EXTT8=
EXTT9=
EXTT10=
EXTT11=
EXTT12=
EXTT13=
EXTT14=
EXTT15=
EXTT16=
EXTT17=
PLAYORDER=
